<svg xmlns="http://www.w3.org/2000/svg" viewBox="55 25 290 360" width="290" height="360">
  <defs>
    <linearGradient id="serShield" x1="0" y1="0" x2="0" y2="1">
      <stop offset="0%" stop-color="#c0a050"/>
      <stop offset="100%" stop-color="#8a6e30"/>
    </linearGradient>
    <linearGradient id="serInner" x1="0" y1="0" x2="0" y2="1">
      <stop offset="0%" stop-color="#2a2a3a"/>
      <stop offset="100%" stop-color="#1a1a28"/>
    </linearGradient>
  </defs>
  <!-- Shield -->
  <path d="M200,40 L330,100 L330,220 Q330,310 200,370 Q70,310 70,220 L70,100 Z" fill="url(#serShield)"/>
  <path d="M200,55 L318,110 L318,218 Q318,300 200,355 Q82,300 82,218 L82,110 Z" fill="url(#serInner)"/>
  <!-- Book (traced from EPS) -->
  <g transform="translate(197,152) scale(0.0208,-0.0208) translate(-4938,-5000)" fill="#c0a050" stroke="none">
    <path d="M3304 8056 c-167 -62 -280 -180 -328 -345 -14 -49 -16 -279 -16
-2360 0 -1941 3 -2316 14 -2372 36 -170 166 -330 334 -410 114 -54 165 -59
583 -59 l379 0 0 -273 c0 -230 2 -276 16 -295 14 -21 22 -22 132 -22 64 0 122
4 127 8 6 4 59 61 119 127 60 66 115 127 122 135 12 12 34 -6 157 -128 l144
-142 121 0 c114 0 122 1 136 22 14 19 16 65 16 295 l0 273 774 2 774 3 43 30
c23 17 53 50 66 74 l23 44 -2 2646 -3 2646 -24 36 c-14 19 -41 46 -60 60 l-36
24 -1775 2 -1775 2 -61 -23z m526 -2215 l0 -1939 -182 -4 c-191 -6 -274 -21
-355 -69 l-33 -18 0 1817 c0 1920 -1 1861 45 1952 24 48 102 127 150 152 68
36 125 46 253 47 l122 1 0 -1939z m2887 1917 l23 -21 0 -1919 0 -1918 -1300 0
-1300 0 0 1940 0 1940 1277 0 1277 0 23 -22z m11 -4180 c8 -8 12 -49 12 -120
l0 -108 -1487 0 c-819 0 -1493 -4 -1499 -8 -25 -16 -34 -56 -34 -145 0 -80 3
-98 21 -121 l20 -26 255 0 254 0 0 -115 0 -115 -310 0 c-288 0 -315 2 -372 21
-125 42 -222 128 -280 249 -44 90 -43 135 4 232 59 125 157 207 293 248 57 17
143 19 1586 19 1174 1 1528 -2 1537 -11z m-1678 -804 l0 -276 -70 66 -70 66
-114 0 -113 0 -56 -59 -57 -60 0 270 0 269 240 0 240 0 0 -276z m1690 183 c0
-68 -4 -99 -16 -115 l-15 -22 -675 0 -674 0 0 115 0 115 690 0 690 0 0 -93z
M4570 6155 l0 -675 865 0 865 0 0 675 0 675 -865 0 -865 0 0 -675z m1430 -5
l0 -370 -565 0 -565 0 0 370 0 370 565 0 565 0 0 -370z"/>
  </g>
  <!-- Decorative lines and text -->
  <rect x="140" y="248" width="120" height="2.5" fill="#c0a050" rx="1"/>
  <text x="200" y="271" text-anchor="middle" font-family="Georgia, 'Times New Roman', serif" font-size="20" fill="#c0a050" letter-spacing="3">RECIPE</text>
  <text x="200" y="294" text-anchor="middle" font-family="Georgia, 'Times New Roman', serif" font-size="20" fill="#c0a050" letter-spacing="3">BOOK</text>
  <rect x="148" y="301" width="104" height="2.5" fill="#c0a050" rx="1"/>
</svg>